# xmcd
#
# Track frame offsets:
#	150
#	16194
#	29623
#	46601
#	57965
#	69917
#	73944
#	88990
#	105515
#	117228
#	120250
#	133247
#	153898
#
# Disc length: 2343 seconds
#
# Revision: 0
# Processed by: cddbd v1.5.2PL0 Copyright (c) Steve Scherf et al.
# Submitted via: EZCDAudioConverter 2.1.7.1
#
DISCID=a809250d
DTITLE=V/A - The Throwaway Age
DYEAR=1900
DGENRE=
TTITLE0=Pluto Walkers - Any Old Love
TTITLE1=Pluto Walkers - Diamondback
TTITLE2=Pluto Walkers - Fast Girl, Last Girl
TTITLE3=El Futuro Sonidos - The Dollhouse Theme
TTITLE4=Pluto Walkers - Two-Timer
TTITLE5=El Futuro Sonidos - Ticket To Anywhere ─ Excerpt
TTITLE6=Pluto Walkers - Whirlcage 
TTITLE7=Pluto Walkers - The Throwaway Age
TTITLE8=Pluto Walkers - Coffin Dragger
TTITLE9=El Futuro Sonidos - Ticket To Anywhere ─ Reprise
TTITLE10=Pluto Walkers - Vindaloo
TTITLE11=El Futuro Sonidos - Like Stars, Like Dust
TTITLE12=Pluto Walkers - That's It Baby!
EXTD=
EXTT0=
EXTT1=
EXTT2=
EXTT3=
EXTT4=
EXTT5=
EXTT6=
EXTT7=
EXTT8=
EXTT9=
EXTT10=
EXTT11=
EXTT12=
PLAYORDER=
